<?xml version="1.0" encoding="UTF-8"?>
<svg width="33px" height="32px" viewBox="0 0 33 32" version="1.1" xmlns="http://www.w3.org/2000/svg" xmlns:xlink="http://www.w3.org/1999/xlink">
    <!-- Generator: Sketch 57.1 (83088) - https://sketch.com -->
    <title>Fulfillment Ship Copy</title>
    <desc>Created with Sketch.</desc>
    <g id="Recent-Iterations" stroke="none" stroke-width="1" fill="none" fill-rule="evenodd">
        <g id="Sign-In-or-Create-Acct-in-Checkout-Google-Copy" transform="translate(-840.000000, -467.000000)" fill="#F96302">
            <g id="Group-2" transform="translate(838.000000, 235.000000)">
                <g id="Fulfillment-Ship-Copy" transform="translate(2.000000, 232.000000)">
                    <g id="Layer_1">
                        <path d="M29.9538462,22.3589744 L17.9384615,28.1025641 L17.9384615,16.3692308 L29.9538462,10.625641 L29.9538462,22.3589744 L29.9538462,22.3589744 Z M16.5423077,13.9487179 L12.1846154,11.8153846 L24.0307692,6.60512821 L28.1346154,8.41025641 L16.5423077,13.9487179 L16.5423077,13.9487179 Z M15.1038462,28.1025641 L3.25769231,22.4 L3.25769231,10.6666667 L15.1038462,16.4102564 L15.1038462,28.1025641 L15.1038462,28.1025641 Z M16.5846154,3.36410256 L20.5192308,5.08717949 L8.84230769,10.2153846 L5.11923077,8.41025641 L16.5846154,3.36410256 L16.5846154,3.36410256 Z M16.5423077,0.328205128 L0.380769231,7.50769231 L0.380769231,24.1230769 L16.5846154,31.9179487 L32.8730769,24.1230769 L32.8730769,7.46666667 L16.5423077,0.328205128 L16.5423077,0.328205128 Z" id="XMLID_3_"></path>
                        <polygon id="XMLID_2_" points="12.0153846 17.8871795 5.58461538 14.8102564 5.58461538 20.5128205 12.0153846 23.6307692"></polygon>
                    </g>
                </g>
            </g>
        </g>
    </g>
</svg>