<svg width="114" height="41" viewBox="0 0 114 41" fill="none" xmlns="http://www.w3.org/2000/svg">
<path d="M28.2214 13.3067C27.5167 12.0086 26.4967 11.0258 25.1616 10.3582C23.8635 9.65349 22.3243 9.30115 20.544 9.30115C17.4657 9.30115 14.9993 10.3211 13.1449 12.361C11.2904 14.3637 10.3632 17.0527 10.3632 20.4277C10.3632 24.0253 11.3275 26.844 13.2561 28.8839C15.2218 30.8867 17.9107 31.8881 21.3229 31.8881C23.6595 31.8881 25.6252 31.2947 27.22 30.1078C28.8519 28.921 30.0387 27.2149 30.7805 24.9896H18.7081V17.9799H39.4036V26.8255C38.6989 29.1992 37.4935 31.4059 35.7874 33.4458C34.1184 35.4857 31.9858 37.1361 29.3896 38.3971C26.7934 39.6581 23.8635 40.2886 20.5997 40.2886C16.7424 40.2886 13.2932 39.4541 10.252 37.7852C7.24778 36.0791 4.89266 33.724 3.18658 30.7198C1.5176 27.7156 0.683105 24.2849 0.683105 20.4277C0.683105 16.5705 1.5176 13.1398 3.18658 10.1356C4.89266 7.09439 7.24778 4.73926 10.252 3.07028C13.2561 1.3642 16.6868 0.511166 20.544 0.511166C25.2172 0.511166 29.1486 1.64237 32.3382 3.90477C35.5649 6.16717 37.6975 9.30116 38.736 13.3067H28.2214Z" fill="#2C92F2"/>
<path d="M57.6911 40.3999C54.8353 40.3999 52.2762 39.9363 50.0138 39.0091C47.7514 38.0819 45.934 36.7096 44.5618 34.8923C43.2266 33.0749 42.5219 30.8867 42.4477 28.3276H52.5729C52.7212 29.774 53.2219 30.8867 54.075 31.6656C54.928 32.4073 56.0407 32.7782 57.4129 32.7782C58.8223 32.7782 59.935 32.463 60.7509 31.8325C61.5669 31.1649 61.9748 30.2562 61.9748 29.1064C61.9748 28.1421 61.641 27.3447 60.9734 26.7142C60.3429 26.0837 59.5455 25.5645 58.5812 25.1565C57.654 24.7485 56.3188 24.2849 54.5757 23.7657C52.0536 22.9868 49.9952 22.208 48.4004 21.4291C46.8056 20.6503 45.4333 19.5005 44.2836 17.9799C43.1339 16.4592 42.559 14.475 42.559 12.0272C42.559 8.39248 43.8756 5.55521 46.5089 3.51534C49.1422 1.43838 52.5729 0.399902 56.801 0.399902C61.1033 0.399902 64.571 1.43838 67.2043 3.51534C69.8376 5.55521 71.247 8.41103 71.4324 12.0828H61.1403C61.0662 10.8218 60.6026 9.83894 59.7495 9.13426C58.8965 8.39248 57.8024 8.0216 56.4672 8.0216C55.3174 8.0216 54.3902 8.33685 53.6855 8.96736C52.9809 9.56077 52.6285 10.4324 52.6285 11.5821C52.6285 12.8431 53.2219 13.826 54.4088 14.5306C55.5956 15.2353 57.45 15.9956 59.9721 16.8116C62.4941 17.6646 64.5339 18.4806 66.0917 19.2594C67.6865 20.0383 69.0588 21.1695 70.2085 22.653C71.3582 24.1366 71.9331 26.0466 71.9331 28.3832C71.9331 30.6085 71.3582 32.6299 70.2085 34.4472C69.0958 36.2645 67.4639 37.711 65.3128 38.7866C63.1617 39.8621 60.6211 40.3999 57.6911 40.3999Z" fill="#2C92F2"/>
<path d="M75.0616 20.4277C75.0616 16.5705 75.8961 13.1398 77.5651 10.1356C79.2341 7.09439 81.5521 4.73926 84.5192 3.07028C87.5233 1.3642 90.9169 0.511166 94.7 0.511166C99.3361 0.511166 103.305 1.73509 106.605 4.18293C109.906 6.63078 112.113 9.96875 113.226 14.1968H102.767C101.988 12.5649 100.875 11.3225 99.4288 10.4694C98.0194 9.61641 96.406 9.18989 94.5887 9.18989C91.6587 9.18989 89.2851 10.2098 87.4677 12.2497C85.6504 14.2896 84.7417 17.0156 84.7417 20.4277C84.7417 23.8399 85.6504 26.5659 87.4677 28.6057C89.2851 30.6456 91.6587 31.6656 94.5887 31.6656C96.406 31.6656 98.0194 31.239 99.4288 30.386C100.875 29.533 101.988 28.2905 102.767 26.6586H113.226C112.113 30.8867 109.906 34.2247 106.605 36.6725C103.305 39.0833 99.3361 40.2886 94.7 40.2886C90.9169 40.2886 87.5233 39.4541 84.5192 37.7852C81.5521 36.0791 79.2341 33.724 77.5651 30.7198C75.8961 27.7156 75.0616 24.2849 75.0616 20.4277Z" fill="#2C92F2"/>
</svg>
